<svg xmlns="http://www.w3.org/2000/svg" fill=" rgb(17, 7, 7)" viewBox="0 0 150.731 81.682" class="pointer-hover default_pointer_land">
                <g id="Group_55" data-name="Group 55" transform="translate(-64.063 -26.062)">
                  <path id="Path_1" data-name="Path 1" d="M92.777,98.7h0a1.153,1.153,0,0,0,1.087-.769l3.255-9.191a.3.3,0,0,1,.285-.2l14.706-.083a.3.3,0,0,1,.289.2l3.273,9.273a1.153,1.153,0,0,0,1.088.769.939.939,0,0,0,.884-1.254L105.894,64.5a.941.941,0,0,0-.884-.623h-.481a.941.941,0,0,0-.884.623L91.893,97.448a.938.938,0,0,0,.884,1.254Zm5.277-12.509,6.513-18.264a.215.215,0,0,1,.4,0L111.5,86.168a.215.215,0,0,1-.2.287l-13.044.026A.215.215,0,0,1,98.054,86.194Z" transform="translate(-16.517 -22.488)"></path>
                  <path id="Path_2" data-name="Path 2" d="M160.841,98.7a.94.94,0,0,0,.939-.939l-.019-14.7a.352.352,0,0,1,.352-.352l9.109-.008a.488.488,0,0,1,.415.229l9.67,15.336a.935.935,0,0,0,.794.437h.419a.939.939,0,0,0,.794-1.439l-9.057-14.311a.208.208,0,0,1,.153-.317,8.76,8.76,0,0,0,5.323-2.882,9.511,9.511,0,0,0,2.744-6.63,9.449,9.449,0,0,0-9.209-9.247H160.841a1.148,1.148,0,0,0-1.148,1.149V97.554A1.148,1.148,0,0,0,160.841,98.7Zm.939-32.528a.209.209,0,0,1,.21-.21h11.277a6.75,6.75,0,0,1,4.985,2.154,7.132,7.132,0,0,1-4.985,12.128l-11.135.019a.352.352,0,0,1-.352-.352Z" transform="translate(-56.868 -22.488)"></path>
                  <path id="Path_3" data-name="Path 3" d="M243.915,96.062H223.762a.939.939,0,0,0-.939.939v.21a.94.94,0,0,0,.939.939l8.51-.018a.522.522,0,0,1,.523.522V116.9a.939.939,0,0,0,.939.939h.21a.94.94,0,0,0,.939-.939l-.019-18.232a.522.522,0,0,1,.522-.522h8.531a.939.939,0,0,0,.939-.939V97A.939.939,0,0,0,243.915,96.062Z" transform="translate(-94.41 -41.627)"></path>
                  <path id="Path_4" data-name="Path 4" d="M291.229,78.832c3.293,1.417,6.636,3.031,9.935,4.8,3.185,1.707,4.733,3.723,4.733,6.163,0,2.461-.755,4.165-2.309,5.209-1.592,1.069-3.946,1.612-7,1.612-2.99,0-5.179-.873-6.507-2.6a8.852,8.852,0,0,1-2.031-4.719.947.947,0,0,0-.934-.886h-.214a.951.951,0,0,0-.69.3.911.911,0,0,0-.249.685,11.272,11.272,0,0,0,2.411,5.953c1.643,2.226,4.381,3.355,8.137,3.355,3.7,0,6.559-.741,8.492-2.2,1.974-1.494,2.975-3.8,2.975-6.855,0-3.085-1.762-5.608-5.236-7.5-3.322-1.8-6.687-3.481-10-4.983-3.121-1.413-4.7-3.14-4.7-5.133a4.922,4.922,0,0,1,2.37-4.523,12.171,12.171,0,0,1,6.482-1.546,13.084,13.084,0,0,1,6.572,1.479,4.358,4.358,0,0,1,2.419,3.61.933.933,0,0,0,.935.856h.21a.938.938,0,0,0,.684-.3.956.956,0,0,0,.253-.719,6.524,6.524,0,0,0-2.889-4.968c-1.882-1.359-4.584-2.048-8.032-2.048s-6.172.688-8.1,2.044a7.26,7.26,0,0,0-2.988,6.338C285.953,75.115,287.728,77.327,291.229,78.832Z" transform="translate(-131.952 -22.488)"></path>
                  <path id="Path_5" data-name="Path 5" d="M233.5,73.252A11.26,11.26,0,0,0,244.745,62a.93.93,0,1,0-1.861,0,9.386,9.386,0,0,1-18.772,0,.931.931,0,0,0-1.861,0A11.26,11.26,0,0,0,233.5,73.252Z" transform="translate(-94.069 -20.821)"></path>
                  <path id="Path_6" data-name="Path 6" d="M355.913,80.478a3.68,3.68,0,0,1,.684,2.137V97.764a.939.939,0,0,0,.939.939h.209a.939.939,0,0,0,.939-.939l0-15.137a3.674,3.674,0,0,1,.684-2.137l10.791-15.128a.939.939,0,0,0-1.529-1.09L357.875,79.39a.268.268,0,0,1-.437,0L346.653,64.27a.939.939,0,0,0-1.528,1.091Z" transform="translate(-167.036 -22.488)"></path>
                  <path id="Path_7" data-name="Path 7" d="M64.063,26.062V91.543H214.794V26.062Zm148.87,63.619H65.924V27.923H212.933Z" transform="translate(0 0)"></path>
                  <path id="Path_8" data-name="Path 8" d="M71.162,201.624a4.863,4.863,0,0,1,2.988,1.036.356.356,0,0,0,.518-.076.373.373,0,0,0-.061-.533,5.656,5.656,0,0,0-3.445-1.174,5.414,5.414,0,1,0,0,10.824,5.649,5.649,0,0,0,3.445-1.158.359.359,0,0,0,.046-.534.37.37,0,0,0-.533-.091,4.541,4.541,0,0,1-2.958,1.036,4.667,4.667,0,1,1,0-9.33Z" transform="translate(-0.921 -103.958)"></path>
                  <path id="Path_9" data-name="Path 9" d="M99.014,200.877a5.421,5.421,0,1,0,5.107,5.412A5.275,5.275,0,0,0,99.014,200.877Zm0,10.077a4.669,4.669,0,1,1,4.345-4.665A4.528,4.528,0,0,1,99.014,210.954Z" transform="translate(-17.72 -103.958)"></path>
                  <path id="Path_10" data-name="Path 10" d="M132.869,201.253h-5.519a.368.368,0,0,0-.351.366v9.941a.374.374,0,0,0,.747,0V206.97h4.482a.374.374,0,1,0,0-.747h-4.482V202h5.122a.374.374,0,0,0,0-.747Z" transform="translate(-37.427 -104.181)"></path>
                  <path id="Path_11" data-name="Path 11" d="M155.626,201.253h-5.519a.368.368,0,0,0-.351.366v9.941a.374.374,0,0,0,.747,0V206.97h4.482a.374.374,0,1,0,0-.747H150.5V202h5.122a.374.374,0,0,0,0-.747Z" transform="translate(-50.959 -104.181)"></path>
                  <path id="Path_12" data-name="Path 12" d="M178.368,202a.365.365,0,0,0,.366-.381.361.361,0,0,0-.366-.366h-5.488a.371.371,0,0,0-.366.366v9.941a.367.367,0,0,0,.336.366h5.519a.361.361,0,0,0,.366-.366.365.365,0,0,0-.366-.381H173.26V206.97h4.467a.374.374,0,0,0,0-.747H173.26V202Z" transform="translate(-64.492 -104.181)"></path>
                  <path id="Path_13" data-name="Path 13" d="M200.673,202a.365.365,0,0,0,.366-.381.361.361,0,0,0-.366-.366h-5.489a.371.371,0,0,0-.366.366v9.941a.367.367,0,0,0,.336.366h5.519a.361.361,0,0,0,.366-.366.365.365,0,0,0-.366-.381h-5.107V206.97h4.467a.374.374,0,0,0,0-.747h-4.467V202Z" transform="translate(-77.756 -104.181)"></path>
                  <path id="Path_14" data-name="Path 14" d="M233.7,205.491a.357.357,0,0,0-.274.442,1.957,1.957,0,0,1,.03.4.674.674,0,0,1-.213.564,1.1,1.1,0,0,1-.427.168h-.244a3.1,3.1,0,0,0-.534-.031,3.024,3.024,0,0,0-2.226.7,1.727,1.727,0,0,0-.533,1.3,1.6,1.6,0,0,0,.076.549.35.35,0,0,0,.366.259.3.3,0,0,0,.107-.015.4.4,0,0,0,.244-.473,1.209,1.209,0,0,1-.046-.32,1.06,1.06,0,0,1,.305-.777,2.342,2.342,0,0,1,1.707-.473,2.473,2.473,0,0,1,.458.03,2.824,2.824,0,0,1,.076.625,2.744,2.744,0,1,1-4.009-2.44.45.45,0,0,0,.122-.061.324.324,0,0,0,.137-.183.363.363,0,0,0-.122-.442,1.823,1.823,0,1,1,2.881-1.479.374.374,0,0,0,.747,0,2.576,2.576,0,0,0-5.153,0,2.512,2.512,0,0,0,.671,1.723,3.494,3.494,0,1,0,5.473,2.882,3.68,3.68,0,0,0-.076-.717,2.136,2.136,0,0,0,.442-.244,1.292,1.292,0,0,0,.518-1.143,4,4,0,0,0-.046-.564A.4.4,0,0,0,233.7,205.491Z" transform="translate(-96.501 -104.181)"></path>
                  <path id="Path_15" data-name="Path 15" d="M270.255,201.624a4.863,4.863,0,0,1,2.988,1.036.356.356,0,0,0,.518-.076.373.373,0,0,0-.061-.533,5.655,5.655,0,0,0-3.446-1.174,5.414,5.414,0,1,0,0,10.824,5.649,5.649,0,0,0,3.446-1.158.358.358,0,0,0,.046-.534.37.37,0,0,0-.534-.091,4.539,4.539,0,0,1-2.958,1.036,4.667,4.667,0,1,1,0-9.33Z" transform="translate(-119.317 -103.958)"></path>
                  <path id="Path_16" data-name="Path 16" d="M303.158,201.253a.371.371,0,0,0-.366.366v5.992a3.567,3.567,0,0,1-7.135,0v-5.992a.374.374,0,0,0-.747,0v5.992a4.315,4.315,0,0,0,8.629,0v-5.992A.374.374,0,0,0,303.158,201.253Z" transform="translate(-137.278 -104.181)"></path>
                  <path id="Path_17" data-name="Path 17" d="M329.616,211.178h-5.107v-9.559a.374.374,0,0,0-.381-.366.371.371,0,0,0-.366.366v9.941a.371.371,0,0,0,.366.366h5.489a.374.374,0,1,0,0-.747Z" transform="translate(-154.436 -104.181)"></path>
                  <path id="Path_18" data-name="Path 18" d="M346.677,201.253h-7.166a.374.374,0,0,0,0,.747h3.217v9.559a.366.366,0,0,0,.732,0V202h3.217a.374.374,0,0,0,0-.747Z" transform="translate(-163.584 -104.181)"></path>
                  <path id="Path_19" data-name="Path 19" d="M373.836,201.253a.371.371,0,0,0-.366.366v5.992a3.568,3.568,0,0,1-7.135,0v-5.992a.374.374,0,0,0-.747,0v5.992a4.314,4.314,0,0,0,8.629,0v-5.992A.374.374,0,0,0,373.836,201.253Z" transform="translate(-179.309 -104.181)"></path>
                  <path id="Path_20" data-name="Path 20" d="M401.243,211.01a.554.554,0,0,1-.153-.259,4.1,4.1,0,0,1-.137-1.235,2.7,2.7,0,0,0-1.433-2.378,1.467,1.467,0,0,1-.152-.076,3.049,3.049,0,0,0-1.28-5.809h-3.049a.378.378,0,0,0-.336.366v9.941a.374.374,0,0,0,.747,0v-4.223h2.591c.016,0,.031.015.077.03a3.41,3.41,0,0,1,1.235.533,1.925,1.925,0,0,1,.869,1.616,3.773,3.773,0,0,0,.29,1.753.85.85,0,0,0,.686.488h.03a1.625,1.625,0,0,0,.183-.015.415.415,0,0,0,.244-.488A.4.4,0,0,0,401.243,211.01Zm-3.1-4.406h-2.7V202h2.637a2.3,2.3,0,0,1,.061,4.6Z" transform="translate(-196.622 -104.181)"></path>
                  <path id="Path_21" data-name="Path 21" d="M424.594,202a.365.365,0,0,0,.366-.381.361.361,0,0,0-.366-.366h-5.489a.371.371,0,0,0-.366.366v9.941a.366.366,0,0,0,.335.366h5.519a.361.361,0,0,0,.366-.366.365.365,0,0,0-.366-.381h-5.108V206.97h4.467a.374.374,0,0,0,0-.747h-4.467V202Z" transform="translate(-210.916 -104.181)"></path>
                </g>
              </svg>